#!OML:ASF Y:\EmotionMaleHayes\Project 1\Capture day 1\Session 1\Male1.ASF
:FULLY-SPECIFIED
:DEGREES
354
root 24.7427 17.4099 -3.64163 339.808 51.8292 -17.4145
lowerback 21.602 3.25408 -2.22499
upperback 5.40469 3.74454 -3.51147
thorax -6.03083 1.94066 -3.5216
lowerneck -22.9751 4.075 2.61135
upperneck 22.5162 6.65317 -6.29995
head 11.4633 2.44329 -1.64714
rclavicle -5.48646e-014 -5.725e-014
rhumerus -4.29108 14.315 -88.7941
rradius 45.9322
rwrist -2.20481
rhand -11.3352 -23.1568
rfingers 7.12502
rthumb 14.6976 -52.6158
lclavicle -5.48646e-014 -5.725e-014
lhumerus -19.4749 33.3199 31.0326
lradius 53.1415
lwrist 22.1477
lhand -36.393 -16.6233
lfingers 7.12502
lthumb -9.48901 13.143
rfemur -12.059 -17.1203 17.407
rtibia 40.934
rfoot -5.14076 -4.46653
rtoes 17.787
lfemur -12.9595 8.45909 -2.55248
ltibia 41.3075
lfoot -14.284 8.36045
ltoes -14.3805
355
root 24.8929 17.3459 -3.6885 339.255 51.6199 -17.5318
lowerback 21.4667 3.43834 -2.24688
upperback 5.27044 3.98752 -3.31264
thorax -6.1137 2.05447 -3.35428
lowerneck -23.1802 4.06361 2.45406
upperneck 22.7285 6.72041 -6.3235
head 11.5826 2.44856 -1.61686
rclavicle 4.6118e-014 0
rhumerus -4.84037 16.3457 -90.3614
rradius 46.7114
rwrist -0.400279
rhand -10.715 -22.6271
rfingers 7.12502
rthumb 15.2951 -52.0416
lclavicle 4.6118e-014 0
lhumerus -19.5338 32.7319 28.8802
lradius 53.5598
lwrist 22.7233
lhand -35.975 -16.0398
lfingers 7.12502
lthumb -9.08565 13.7445
rfemur -11.3973 -16.9232 16.1573
rtibia 39.5744
rfoot -6.98807 -6.62735
rtoes 17.5197
lfemur -11.5099 7.95728 -2.86726
ltibia 40.641
lfoot -15.6377 8.95189
ltoes -18.6785
356
root 25.0535 17.2621 -3.74105 337.945 51.0859 -18.3598
lowerback 21.4915 3.57359 -1.59642
upperback 5.19506 4.31833 -2.98095
thorax -6.17753 2.20464 -3.45429
lowerneck -23.1077 4.0528 1.91836
upperneck 22.5206 6.73575 -5.81896
head 11.4484 2.47995 -1.33976
rclavicle 1.35174e-014 1.27222e-014
rhumerus -5.40924 18.4667 -91.7591
rradius 47.7101
rwrist 0.93529
rhand -10.1892 -21.9587
rfingers 7.12502
rthumb 15.8014 -51.3338
lclavicle 1.35174e-014 1.27222e-014
lhumerus -19.5376 31.943 26.7797
lradius 54.0561
lwrist 23.1375
lhand -35.4225 -14.9299
lfingers 7.12502
lthumb -8.55254 14.8769
rfemur -10.3984 -16.6851 15.4286
rtibia 37.7197
rfoot -8.50072 -8.58099
rtoes 15.7744
lfemur -9.65155 7.60989 -2.4727
ltibia 39.6725
lfoot -16.9668 9.13431
ltoes -18.9058
357
root 25.1942 17.1658 -3.80383 335.804 50.2352 -20.2947
lowerback 21.6243 3.57976 -0.143067
upperback 5.21009 4.67049 -2.50281
thorax -6.14413 2.3594 -3.85773
lowerneck -23.75 3.92234 1.6223
upperneck 22.4732 6.54639 -5.47685
head 11.5178 2.39834 -1.18909
rclavicle -3.89618e-014 -2.54444e-014
rhumerus -5.74624 20.6172 -93.0121
rradius 48.9841
rwrist 2.03914
rhand -10.0341 -20.9675
rfingers 7.12502
rthumb 15.9508 -50.3307
lclavicle -3.89618e-014 -2.54444e-014
lhumerus -19.2541 31.3682 24.7165
lradius 54.4472
lwrist 23.3753
lhand -34.7879 -14.0386
lfingers 7.12502
lthumb -7.94011 15.7923
rfemur -9.59513 -16.1729 15.7788
rtibia 35.7144
rfoot -10.0766 -10.6399
rtoes 16.0754
lfemur -8.08618 7.62607 -1.035
ltibia 39.0503
lfoot -18.8151 9.05182
ltoes -17.3026
358
root 25.2938 17.0721 -3.8743 334.312 49.8591 -21.9531
lowerback 21.9636 3.52425 0.741855
upperback 4.94871 4.80728 -2.062
thorax -6.56531 2.39817 -3.95819
lowerneck -23.6526 4.14008 1.63866
upperneck 22.0329 6.84186 -5.59263
head 11.3511 2.52906 -1.18465
rclavicle -8.74653e-015 9.54166e-015
rhumerus -6.23951 22.6614 -94.1927
rradius 50.405
rwrist 4.04211
rhand -9.99997 -19.4009
rfingers 7.12502
rthumb 15.9837 -48.7615
lclavicle -8.74653e-015 9.54166e-015
lhumerus -19.111 30.7216 22.6268
lradius 54.9873
lwrist 23.65
lhand -34.0655 -13.4623
lfingers 7.12502
lthumb -7.24274 16.3938
rfemur -9.51001 -15.7444 15.9694
rtibia 33.7299
rfoot -11.8364 -12.7176
rtoes 18.5366
lfemur -7.67187 7.78206 -0.0830796
ltibia 39.1997
lfoot -20.6521 9.11913
ltoes -17.3067
359
root 25.4095 16.9686 -3.93636 334.137 50.0732 -21.9366
lowerback 22.2918 3.60382 0.37419
upperback 4.55988 4.82145 -1.89255
thorax -7.20626 2.38619 -3.6197
lowerneck -23.6915 4.28325 1.58525
upperneck 21.9286 7.03503 -5.52588
head 11.322 2.62179 -1.118
rclavicle -8.82604e-014 4.77083e-014
rhumerus -7.13141 24.5165 -95.4296
rradius 51.9323
rwrist 6.67745
rhand -10.1001 -18.1038
rfingers 7.12502
rthumb 15.8872 -47.4721
lclavicle -8.82604e-014 4.77083e-014
lhumerus -19.2183 29.8054 20.4962
lradius 55.6984
lwrist 23.7786
lhand -33.0172 -12.9813
lfingers 7.12502
lthumb -6.23082 16.9071
rfemur -9.30108 -15.6506 14.5139
rtibia 31.6658
rfoot -13.4658 -14.1955
rtoes 20.4091
lfemur -7.3215 7.90622 -0.762461
ltibia 39.5366
lfoot -21.9489 9.19145
ltoes -17.1845
360
root 25.5859 16.8353 -3.98582 334.872 50.3858 -20.2299
lowerback 22.067 3.87712 -0.678098
upperback 4.60623 4.9323 -2.05237
thorax -7.10441 2.46221 -3.20947
lowerneck -24.1157 4.37738 1.78096
upperneck 21.9047 7.11489 -5.62279
head 11.4074 2.65177 -1.1655
rclavicle -3.10104e-014 -1.90833e-014
rhumerus -7.97202 26.2985 -96.487
rradius 53.8373
rwrist 8.99311
rhand -10.2257 -17.5238
rfingers 7.12502
rthumb 15.7662 -46.9016
lclavicle -3.10104e-014 -1.90833e-014
lhumerus -18.9213 29.0225 18.5563
lradius 56.097
lwrist 23.7863
lhand -32.0573 -12.8749
lfingers 7.12502
lthumb -5.30406 17.0388
rfemur -8.26398 -16.0012 11.3425
rtibia 29.318
rfoot -14.3621 -14.6779
rtoes 20.2247
lfemur -6.06996 8.07451 -2.76076
ltibia 39.6612
lfoot -22.9379 9.31759
ltoes -16.027
361
root 25.6953 16.7004 -4.04904 334.077 50.2434 -20.6816
lowerback 22.2692 3.96239 -0.586842
upperback 4.6153 5.08292 -1.77519
thorax -7.21228 2.53236 -3.01797
lowerneck -24.2532 4.44535 2.04261
upperneck 21.3871 7.17419 -6.01746
head 11.2697 2.65713 -1.34023
rclavicle 3.10104e-014 -9.54166e-015
rhumerus -8.659 28.2351 -97.2776
rradius 56.1311
rwrist 10.5242
rhand -10.1788 -17.4956
rfingers 7.12502
rthumb 15.8114 -46.8699
lclavicle 3.10104e-014 -9.54166e-015
lhumerus -18.3878 28.4835 16.8254
lradius 56.3077
lwrist 23.9717
lhand -31.5248 -13.242
lfingers 7.12502
lthumb -4.78992 16.6839
rfemur -7.81869 -15.4186 10.4426
rtibia 26.818
rfoot -15.0429 -16.3211
rtoes 18.7284
lfemur -6.09409 8.41216 -2.71774
ltibia 41.06
lfoot -23.6882 9.17306
ltoes -13.6365
362
root 25.8103 16.5601 -4.12037 333.319 50.4355 -21.1926
lowerback 22.3439 3.89873 -0.435134
upperback 4.66776 5.0577 -1.51281
thorax -7.2071 2.51994 -2.81538
lowerneck -23.923 4.55623 2.022
upperneck 20.3665 7.28955 -6.17659
head 10.8411 2.71869 -1.37899
rclavicle 4.77083e-014 7.63333e-014
rhumerus -9.32643 30.3487 -97.8556
rradius 58.54
rwrist 11.2799
rhand -10.3271 -17.8746
rfingers 7.12502
rthumb 15.6686 -47.2601
lclavicle 4.77083e-014 7.63333e-014
lhumerus -18.0702 28.0701 15.2753
lradius 56.8002
lwrist 24.214
lhand -31.1647 -13.7007
lfingers 7.12502
lthumb -4.44213 16.2327
rfemur -7.36013 -15.3715 9.23009
rtibia 24.4007
rfoot -15.8702 -17.3736
rtoes 18.2758
lfemur -7.16653 8.76033 -2.89346
ltibia 43.5749
lfoot -24.4732 8.89024
ltoes -12.7457
363
root 25.9291 16.4301 -4.18911 332.872 50.6674 -21.1821
lowerback 22.4169 3.95456 -0.654606
upperback 4.81146 5.10535 -1.2791
thorax -7.1272 2.55234 -2.4504
lowerneck -23.938 4.53774 1.53159
upperneck 19.6119 7.27768 -5.83057
head 10.5309 2.73581 -1.17785
rclavicle 2.34566e-014 0
rhumerus -9.82455 32.4322 -98.0374
rradius 61.0125
rwrist 10.6321
rhand -10.067 -17.9596
rfingers 7.12502
rthumb 15.9191 -47.3254
lclavicle 2.34566e-014 0
lhumerus -17.8232 27.6495 14.0106
lradius 57.5195
lwrist 24.4768
lhand -31.075 -14.1892
lfingers 7.12502
lthumb -4.35552 15.746
rfemur -6.90765 -14.9808 7.58286
rtibia 22.188
rfoot -17.173 -17.815
rtoes 20.0543
lfemur -7.78813 8.97226 -3.46123
ltibia 45.56
lfoot -25.2151 8.67648
ltoes -12.6355
